<svg width="605" height="605" xmlns="http://www.w3.org/2000/svg" xmlns:xlink="http://www.w3.org/1999/xlink" overflow="hidden"><defs><clipPath id="clip0"><rect x="0" y="0" width="605" height="605"/></clipPath></defs><g clip-path="url(#clip0)"><rect x="0" y="0" width="605" height="605" fill="#FFFFFF"/><rect x="0" y="0" width="605" height="605" fill="#FFFFFF"/><g><path d="M17 227.006 17 227.006M26.0007 225.006 26.0007 227.006M36.0009 223.006 36.0009 227.006M45.0012 221.006 45.0012 227.006M55.0014 214.006 55.0014 227.006M64.0017 206.005 64.0017 227.006M74.0019 199.005 74.0019 227.006M83.0022 190.005 83.0022 227.006M93.0024 182.005 93.0024 227.006M102.003 173.005 102.003 227.006M112.003 164.004 112.003 227.006M122.003 155.004 122.003 227.006M131.003 147.004 131.003 227.006M141.004 138.004 141.004 227.006M150.004 130.003 150.004 227.006M160.004 122.003 160.004 227.006M169.004 114.003 169.004 227.006M179.005 108.003 179.005 227.006M188.005 102.003 188.005 227.006M198.005 97.0025 198.005 227.006M207.005 94.0024 207.005 227.006M217.006 92.0024 217.006 227.006M226.006 91 226.006 227.006M236.006 92.0024 236.006 227.006M245.006 95.0025 245.006 227.006M255.007 100.003 255.007 227.006M264.007 107.003 264.007 227.006M274.007 116.003 274.007 227.006M283.007 127.003 283.007 227.006M293.008 141.004 293.008 227.006M302.008 157.004 302.008 227.006M312.008 176.005 312.008 227.006M322.008 196.005 322.008 227.006M331.009 220.006 331.009 227.006M341.009 227.006 341.009 245.006M350.009 227.006 350.009 273.007M360.009 227.006 360.009 303.008M369.01 227.006 369.01 334.009M379.01 227.006 379.01 368.01M388.01 227.006 388.01 402.01M398.01 227.006 398.01 438.011M407.011 227.006 407.011 474.012M417.011 227.006 417.011 511.013M426.011 227.006 426.011 554M436.011 227.006 436.011 470.012M445.012 227.006 445.012 408.011M455.012 227.006 455.012 361.009M464.012 227.006 464.012 327.009M474.012 227.006 474.012 301.008M483.013 227.006 483.013 282.007M493.013 227.006 493.013 268.007M502.013 227.006 502.013 257.007M512.013 227.006 512.013 250.007M522.014 227.006 522.014 244.006M531.014 227.006 531.014 239.006M541.014 227.006 541.014 236.006M550.014 227.006 550.014 234.006M560.015 227.006 560.015 232.006M569.015 227.006 569.015 231.006M579.015 227.006 579.015 230.006M588 227.006 588 229.006" stroke="#000000" stroke-width="1.66759" stroke-linejoin="round" stroke-miterlimit="10" fill="none"/></g><rect x="0.500013" y="0.500013" width="605" height="605" stroke="#FFFFFF" stroke-width="1.00055" stroke-linejoin="round" stroke-miterlimit="10" fill="none"/></g></svg>